<?xml version="1.0" standalone="no"?>
<!DOCTYPE svg PUBLIC "-//W3C//DTD SVG 20010904//EN"
 "http://www.w3.org/TR/2001/REC-SVG-20010904/DTD/svg10.dtd">
<svg version="1.0" xmlns="http://www.w3.org/2000/svg"
 width="1312.000000pt" height="1416.000000pt" viewBox="0 0 1312.000000 1416.000000"
 preserveAspectRatio="xMidYMid meet">
<metadata>
Created by potrace 1.16, written by Peter Selinger 2001-2019
</metadata>
<g transform="translate(0.000000,1416.000000) scale(0.100000,-0.100000)"
fill="#000000" stroke="none">
<path d="M6540 14054 c-27 -59 -50 -108 -50 -110 0 -1 -20 -45 -44 -96 -24
-51 -69 -149 -101 -218 -31 -69 -70 -152 -85 -185 -15 -33 -54 -116 -85 -185
-32 -69 -72 -156 -90 -195 -18 -38 -58 -126 -90 -195 -31 -69 -69 -152 -85
-185 -15 -33 -56 -121 -90 -195 -34 -74 -72 -157 -85 -185 -13 -27 -49 -106
-80 -175 -32 -69 -72 -156 -90 -195 -18 -38 -58 -126 -90 -195 -31 -69 -70
-152 -85 -185 -15 -33 -54 -116 -85 -185 -32 -69 -72 -156 -90 -195 -18 -38
-58 -126 -90 -195 -31 -69 -70 -152 -85 -185 -15 -33 -54 -116 -85 -185 -32
-69 -72 -156 -90 -195 -18 -38 -58 -126 -90 -195 -31 -69 -70 -152 -85 -185
-15 -33 -54 -116 -85 -185 -32 -69 -72 -156 -90 -195 -18 -38 -58 -126 -90
-195 -31 -69 -70 -152 -85 -185 -15 -33 -54 -116 -85 -185 -32 -69 -72 -156
-90 -195 -18 -38 -56 -122 -85 -185 -29 -63 -63 -137 -75 -165 -13 -27 -53
-113 -89 -190 l-65 -140 57 -55 c353 -340 782 -639 1249 -868 149 -73 175 -83
189 -71 9 7 48 58 88 112 74 104 111 155 215 297 34 47 105 146 158 220 53 74
116 160 138 190 23 30 72 98 110 150 38 52 93 128 122 168 29 39 77 105 106
145 29 39 84 115 122 167 125 173 187 255 194 257 3 1 29 -31 58 -70 100 -139
197 -273 250 -344 112 -154 162 -221 228 -313 38 -52 92 -126 120 -165 28 -38
82 -113 120 -165 38 -52 85 -117 105 -145 20 -27 67 -93 105 -145 38 -52 93
-128 122 -167 29 -40 77 -106 106 -145 29 -40 84 -116 122 -168 38 -52 93
-128 122 -167 29 -40 77 -106 106 -145 29 -40 84 -116 122 -168 38 -52 93
-128 122 -167 29 -40 77 -106 106 -145 29 -40 84 -116 122 -168 38 -52 93
-128 122 -167 29 -40 77 -106 106 -145 29 -40 84 -116 122 -168 38 -52 92
-126 120 -165 28 -38 82 -113 120 -165 38 -52 93 -128 122 -167 29 -40 77
-106 106 -145 29 -40 84 -116 122 -168 38 -52 93 -128 122 -167 29 -40 77
-106 106 -145 29 -40 84 -116 122 -168 74 -102 144 -197 229 -312 29 -40 93
-129 142 -197 49 -68 116 -160 148 -205 64 -88 107 -147 202 -277 33 -46 89
-122 123 -169 34 -47 93 -128 131 -180 38 -52 97 -133 131 -180 34 -47 81
-110 103 -141 78 -107 185 -254 247 -339 34 -47 81 -110 103 -141 78 -107 185
-254 247 -339 34 -47 81 -110 103 -141 78 -107 185 -254 247 -339 65 -89 103
-141 205 -281 33 -46 89 -122 123 -169 34 -47 93 -128 131 -180 38 -52 99
-135 135 -185 36 -49 84 -115 105 -145 22 -30 71 -98 110 -150 38 -52 102
-141 142 -197 69 -97 88 -117 88 -93 0 6 -22 58 -50 116 -27 58 -50 107 -50
109 0 2 -20 45 -44 97 -24 51 -70 149 -101 218 -64 140 -92 201 -159 343 -25
54 -46 100 -46 102 0 2 -20 45 -44 97 -24 51 -70 149 -101 218 -64 140 -92
201 -159 343 -25 54 -46 100 -46 102 0 4 -41 92 -131 283 -21 45 -39 84 -39
86 0 3 -20 46 -44 98 -24 51 -70 149 -101 218 -64 140 -92 201 -159 343 -25
54 -46 100 -46 102 0 2 -21 48 -46 102 -26 54 -66 140 -90 191 -24 52 -44 95
-44 97 0 2 -21 48 -46 102 -67 142 -95 203 -159 343 -31 69 -77 167 -101 218
-24 52 -44 95 -44 97 0 2 -21 48 -46 102 -65 140 -94 201 -159 343 -32 69 -72
157 -90 195 -18 39 -58 126 -90 195 -31 69 -70 152 -85 185 -15 33 -54 116
-85 185 -31 69 -69 152 -85 185 -15 33 -53 116 -85 185 -31 69 -77 167 -101
218 -24 52 -44 95 -44 97 0 2 -21 48 -46 102 -65 140 -94 201 -159 343 -32 69
-72 157 -90 195 -18 39 -58 126 -90 195 -31 69 -70 152 -85 185 -15 33 -54
116 -85 185 -32 69 -72 157 -90 195 -18 39 -58 126 -90 195 -31 69 -70 152
-85 185 -15 33 -54 116 -85 185 -32 69 -72 157 -90 195 -18 39 -58 126 -90
195 -31 69 -69 152 -85 185 -15 33 -56 121 -90 195 -34 74 -72 158 -85 185
-13 28 -49 106 -80 175 -32 69 -72 157 -90 195 -18 39 -58 126 -90 195 -31 69
-70 152 -85 185 -15 33 -54 116 -85 185 -32 69 -72 157 -90 195 -18 39 -58
126 -90 195 -31 69 -70 152 -85 185 -15 33 -54 116 -85 185 -32 69 -72 157
-90 195 -18 39 -58 126 -90 195 -31 69 -70 152 -85 185 -15 33 -54 116 -85
185 -32 69 -72 157 -90 195 -18 39 -58 126 -90 195 -65 142 -94 203 -159 343
-25 54 -46 100 -46 102 0 2 -20 45 -44 97 -24 51 -67 145 -96 208 -29 63 -67
146 -85 185 -18 38 -58 126 -90 195 -31 69 -70 152 -85 185 -15 33 -54 116
-85 185 -32 69 -72 157 -90 195 -18 39 -58 126 -90 195 -55 121 -69 150 -150
325 -21 44 -46 98 -55 120 -39 89 -63 135 -71 135 -5 0 -31 -48 -59 -106z"/>
<path d="M4585 12869 c-527 -54 -1101 -286 -1550 -627 -302 -230 -582 -544
-750 -842 -77 -138 -170 -350 -206 -470 -42 -142 -49 -169 -68 -265 -143 -726
46 -1528 550 -2335 78 -124 98 -155 171 -261 21 -30 46 -65 55 -79 l17 -25
-24 20 c-277 230 -506 482 -697 769 -29 43 -53 81 -53 84 0 3 -6 13 -14 21 -8
9 -43 72 -79 141 -233 445 -330 880 -299 1342 18 278 74 520 187 818 51 132
164 361 252 509 40 68 71 126 68 130 -7 6 -152 -141 -261 -264 -147 -167 -290
-365 -400 -555 -54 -92 -151 -288 -165 -329 -4 -14 -19 -57 -34 -96 -95 -250
-135 -478 -135 -769 0 -317 40 -532 165 -876 42 -115 194 -405 285 -545 157
-241 306 -421 530 -645 159 -160 201 -199 305 -284 33 -27 65 -54 70 -58 35
-31 -272 118 -424 206 -408 236 -690 488 -906 811 -64 96 -176 308 -195 370
-5 17 -20 62 -34 102 -69 197 -100 405 -100 663 1 290 40 530 138 843 15 48
20 77 13 74 -7 -2 -42 -62 -79 -134 -333 -651 -485 -1227 -457 -1733 19 -354
129 -672 323 -940 51 -71 188 -230 220 -255 13 -11 44 -38 68 -61 59 -56 220
-174 320 -235 222 -136 511 -258 793 -332 l90 -24 -100 -8 c-55 -4 -176 -5
-268 -2 -625 24 -1060 209 -1341 572 -231 298 -340 671 -341 1172 0 106 -2
193 -5 193 -7 0 -43 -127 -100 -345 -34 -132 -79 -380 -100 -545 -28 -220 -28
-587 0 -755 59 -363 196 -615 440 -810 189 -151 456 -249 775 -285 209 -23
598 -7 862 35 239 38 572 119 781 189 73 25 132 43 132 41 0 -3 -44 -95 -170
-360 -29 -60 -76 -159 -105 -220 -114 -240 -149 -314 -195 -410 -26 -55 -68
-143 -93 -195 -42 -89 -71 -151 -192 -405 -26 -55 -72 -152 -102 -215 -31 -63
-77 -160 -103 -215 -26 -55 -69 -145 -95 -200 -26 -55 -69 -145 -95 -200 -26
-55 -71 -149 -100 -210 -29 -60 -74 -155 -100 -210 -26 -55 -70 -147 -97 -205
-86 -181 -144 -301 -193 -405 -26 -55 -71 -149 -100 -210 -29 -60 -74 -155
-100 -210 -99 -208 -154 -323 -201 -422 -120 -252 -150 -314 -192 -403 -54
-116 -122 -258 -194 -410 -31 -63 -76 -158 -101 -210 -24 -52 -69 -147 -99
-210 -31 -63 -72 -151 -93 -195 -21 -44 -68 -143 -105 -220 -37 -77 -77 -160
-88 -185 -12 -25 -23 -48 -25 -52 -2 -5 1 -8 7 -8 5 0 31 30 57 67 52 74 64
90 269 363 200 266 437 563 575 720 36 41 79 91 95 112 46 56 260 292 365 402
297 311 589 590 845 808 98 84 153 130 225 187 19 16 61 49 92 74 266 214 704
508 1028 689 741 414 1496 658 2272 734 209 21 652 24 843 5 648 -61 1218
-221 1752 -489 203 -102 435 -241 460 -275 5 -6 17 -46 27 -87 10 -41 24 -95
31 -120 7 -25 25 -90 40 -145 41 -155 47 -170 55 -154 21 40 59 302 76 524 30
372 -11 722 -117 1014 -225 619 -726 1060 -1657 1459 -272 117 -422 174 -1157
440 -550 199 -819 309 -1130 462 -386 190 -723 408 -1055 684 -268 224 -572
535 -766 786 -85 110 -264 371 -264 385 0 5 -6 16 -14 24 -20 23 -138 251
-182 351 -157 362 -223 666 -224 1019 0 199 14 325 56 506 191 815 831 1562
1931 2256 56 35 103 67 103 72 0 8 -13 8 -125 -4z m3988 -8236 c62 -48 138
-162 221 -332 25 -52 44 -96 42 -98 -2 -3 -98 49 -213 115 -237 136 -231 129
-193 236 39 108 77 129 143 79z"/>
</g>
</svg>
